<svg xmlns="http://www.w3.org/2000/svg" width="754" height="754" viewBox="0 0 754 754">
  <g id="favicon" transform="translate(-602 -685)">
    <circle id="Ellipse_1" data-name="Ellipse 1" cx="377" cy="377" r="377" transform="translate(602 685)"/>
    <g id="SignTransparent" transform="translate(659.995 879.425)">
      <path id="Path_2" data-name="Path 2" d="M415,483c.74-2,1.09-4.32,2.3-6a39.7,39.7,0,0,1,6.14-6.43c2.71-2.39,5.68-4.47,8.47-6.77,5.61-4.63,10.94-9.63,16.85-13.84,2.64-1.88,6.38-2.24,9.63-3.25a28.19,28.19,0,0,0,4.68-1.39c7.92-4.19,15.73-8.58,23.65-12.76,2.61-1.38,5.72-1.94,8.13-3.57,21.27-14.49,45.92-21.37,69.27-31.18,10.53-4.42,20.67-9.78,31-14.65,5.24-2.47,10.49-4.9,15.8-7.18,10.35-4.45,16.8-12.05,20.41-22.76,1.7-5,5.27-9.49,8.14-14.11,1.29-2.09,3-3.89,4.41-5.93,4.39-6.48,13.18-5.53,16.93,1.85,5,9.93,4.58,16.45-3.09,24.59-6.11,6.48-13.29,11.94-19.57,18.27-4.19,4.21-8.34,8.76-11.26,13.87-4.77,8.35-8.36,17.36-12.74,25.94-5.28,10.35-10.76,20.59-16.33,30.78-10.76,19.66-21.82,39.15-32.38,58.91-4.89,9.15-8.79,18.82-13.36,28.14-.91,1.86-2.81,3.23-4.27,4.81-1.86,2-2.09,4,.61,5.22,9.73,4.48,11.07,13.43,12.85,22.53,1.19,6.11,3.73,11.95,6,19,3.7-3.93,7-6.9,9.64-10.34,8.15-10.45,18.13-18.91,28.58-26.9a63.816,63.816,0,0,0,5-4.14c6.18-5.75,10.23-5.73,16,.16a20.174,20.174,0,0,0,2.34,1.72c4-5.26,7.9-10.41,11.89-15.46A95.006,95.006,0,0,1,649.37,522c2.22-2.11,5.18-3.41,7.19.89,1.67,3.55,3.65,7,5.5,10.44,1.69,3.18,2.94,5.24,7.56,2.66,7-3.9,13.76-7.78,18.61-14.31a44.346,44.346,0,0,0,3.55-5.39c4.49-8.42,11.51-10.19,19.38-4.7A39.5,39.5,0,0,1,725.24,528c2.8,6.28,4.13,6.8,9.54,2.68,6.39-4.87,12.13-10.6,18.11-16,4.16-3.77,8.77-7.21,12.24-11.55,8.49-10.62,16.38-21.72,24.64-32.52,2.8-3.67,6.05-7,9-10.57,14-17,23.91-36.46,32.73-56.54,4.45-10.14,9.78-19.88,14.47-29.92,4.84-10.35,9.17-20.95,14.14-31.24,4.11-8.53,9.62-16.47,13.07-25.23,4.44-11.29,11.28-21,17.7-31,2.59-4.05,4.53-8.51,7.22-12.49,1.49-2.2,3.92-3.77,5.92-5.63h6c7.92,9.43,6,20.73,3.09,30.5-3.33,11.08-5.6,22.83-13,32.69-5.79,7.7-9.75,16.76-14.73,25.09-3.23,5.4-6.84,10.58-10.29,15.86-2.44,3.73-4.94,7.42-7.34,11.18-5.6,8.77-11.58,17.33-16.64,26.4-6,10.84-11.15,22.2-16.92,33.19-4.69,8.91-10.16,17.43-14.58,26.47-5.83,11.94-10.8,24.29-16.48,36.3-2,4.2-1.45,6.36,2.64,8.83,4.47,2.71,9.38,5.88,12,10.14,3.76,6.1,5.83,13.3,8.25,20.16,4.2,11.88,7.84,24,12.24,35.75A31.18,31.18,0,0,0,855,598.81c8.19,3.69,15,.08,21.3-4.31,8.9-6.23,17.42-13,25.92-19.83a111.016,111.016,0,0,0,9.58-9.22c3.24-3.28,6.32-6.71,9.51-10,1-1.07,2.49-1.83,3.22-3,1.5-2.49,2.63-5.19,3.91-7.81-2.82-.5-5.68-1.61-8.45-1.4-15,1.09-20.85-7.54-24.34-19.06-4.11-13.58-2.2-27.89,1.33-41.41,3.29-12.64,8.4-24.81,12.92-37.11a84.392,84.392,0,0,1,4.87-9.75c4.68-8.93,8.93-18.12,14.25-26.65,4-6.4,9.28-12,14.18-17.84,4.77-5.65,9.6-11.28,14.74-16.59s11-10.49,16.45-15.77c4.14-4,8-8.35,12.39-12,1.67-1.4,4.5-1.59,6.85-2,2.54-.42,5.66.43,7.64-.75,7.45-4.46,13.14-1.07,18.18,3.77,2.72,2.62,5.33,6.2,6.17,9.78,2.89,12.22,6.3,24.65,3.59,37.28-4.84,22.48-12.74,43.91-24.56,63.74-2.21,3.71-1.22,5.57,2.4,6.71,8.05,2.55,11.57,9.23,15.33,16,2.24,4,3.53,9.33,9.15,10.46,7.15,1.44,14.32,2.73,21.48,4.08v3c-5.12,2.65-10,6.66-15.41,7.65-10.12,1.84-20-.4-27.88-7.64-2.59-2.38-3.91-6.07-6.17-8.86-3.21-3.95-6.31-3.84-9.37.07-9,11.47-17.94,22.93-26.8,34.49-6,7.77-11.34,16-17.69,23.47-8.94,10.46-18.52,20.38-27.87,30.49-14.4,15.57-29.48,30.32-50.14,37.38-4.76,1.63-10.36,3.23-15,2.25-17.79-3.74-29.7-15.18-36.1-31.89-4.14-10.81-6.79-22.18-10.59-33.12-2.68-7.71-3-16.37-9.57-22.65-3.87-3.67-4.44-4.14-8.39-.59-8.82,7.92-12.4,19.27-17.75,29.16-9,16.65-18,33.17-29.16,48.47a12.57,12.57,0,0,1-5.8,4.5c-2.08.68-5.65.7-6.82-.58-3.11-3.4-5.72-7.64-3.75-12.69a69.153,69.153,0,0,1,5.23-11.23c5.86-9.55,12-18.9,18.11-28.32,3.6-5.59,7.36-11.08,10.8-16.76,7.29-12,14.4-24.18,21.63-36.26,1.22-2,2.67-3.95,4-5.92L786.81,499a18.567,18.567,0,0,1-1.78,3.33c-5,6.05-9.72,12.29-15.08,18-7.74,8.19-16.09,15.79-23.86,23.94-6.85,7.17-19.86,9.73-26.73,3.68-4.6-4-8.12-9.56-11.25-14.93-2.43-4.19-4-5.62-8.52-3.6a18,18,0,0,0-4.86,3.39c-6,5.67-11.79,11.56-17.84,17.18-5.63,5.23-18.33,8.49-24.71.36-1.82-2.3-6.29-1.19-8.44,1.71-5.76,7.8-11.65,15.51-17.2,23.45-2.8,4-6.36,4.48-10.52,3.45s-5.69-4.19-5.83-8.24a30.882,30.882,0,0,0-.51-3.68,18.76,18.76,0,0,0-3.39,1.94c-5.85,5.59-11.91,11-17.35,17-4.89,5.37-9,11.43-13.62,17.09-2.39,3-4.65,6.22-7.64,8.44-5.57,4.15-13,2.16-14.83-4-2.08-6.81-3.47-13.84-4.9-20.84-1-5-1.48-10.2-2.5-15.25-.28-1.38-1.68-2.54-2.56-3.8-1.27,1-2.9,1.71-3.75,3-2,3-3.6,6.36-5.55,9.45-7.57,12-16.17,23.37-19.79,37.55-1.75,6.86-4.16,14-12.8,15.54h-4c-1.32-2.83-4.17-6-3.69-8.43a193.008,193.008,0,0,1,7.5-28.76c3.23-9,7.9-17.53,12-26.24,3.39-7.18,6.53-14.5,10.38-21.43,4.64-8.38,10-16.33,14.88-24.6,4.42-7.56,8.64-15.24,12.75-23,6.59-12.42,12.92-25,19.54-37.39,6.28-11.8,12.87-23.44,19.16-35.24,4.43-8.33,8.62-16.78,12.81-25.23.57-1.16.45-2.65.76-4.65a48.319,48.319,0,0,0-6.58,1.78c-10.65,4.82-21.23,9.8-31.85,14.66-17,7.78-34.06,15.44-51,23.3-9,4.16-17.78,8.64-26.64,13a132.9,132.9,0,0,0-12.81,6.68c-9.35,6-18.6,12.16-27.61,18.66-1.93,1.39-2.88,4.37-3.83,6.8-.35.88.38,3.09,1.06,3.32,7.93,2.6,14.62,9,23.62,8.16,4.65-.44,6.44,2.59,9.5,6.21-2.69.19-4.43.4-6.16.41-13.14.1-26.28.19-39.42.2-5.26,0-9.25-2.82-12.06-6.87-1.94-2.78-2.9-6.24-4.3-9.4Zm518,37,10-6c4.87-2.69,10.2-4.72,13.46-9.69a75.883,75.883,0,0,1,5-6.82c4.57-5.47,10-10.37,13.73-16.36a356.493,356.493,0,0,0,17.26-31.76c5.08-10.44,9.16-21.36,14-31.94a96.931,96.931,0,0,0,8.41-48.62c-.35-4.44-1.15-10-5.9-11.14-3.13-.76-7.51,1.44-10.66,3.38-9.3,5.73-17.8,12.52-26.31,19.44-11.79,9.59-19.47,21.89-28.06,33.78-9,12.52-14.64,26.7-20.12,40.94-7.35,19.08-11.93,38.75-12,59.32,0,8.46,5.14,12.29,13.18,9.49C927.78,523.06,930.33,521.37,933,520ZM886.21,325c9.78-7.89,22.92-27.71,18.5-36.76-2,2.36-3.93,4.78-6,7.06-6.11,6.71-9.29,15.05-12.84,23.15C885.21,319.9,886,322,886.21,325Z" transform="translate(-415 -268)" fill="#12a20d"/>
    </g>
  </g>
</svg>
